<mxfile host="Electron" modified="2025-02-18T21:29:47.595Z" agent="Mozilla/5.0 (Windows NT 10.0; Win64; x64) AppleWebKit/537.36 (KHTML, like Gecko) draw.io/22.0.3 Chrome/114.0.5735.289 Electron/25.8.4 Safari/537.36" etag="4yGiePssw-Sh2hbrJVGj" version="22.0.3" type="device">
  <diagram id="C5RBs43oDa-KdzZeNtuy" name="Page-1">
    <mxGraphModel dx="1034" dy="511" grid="1" gridSize="10" guides="1" tooltips="1" connect="1" arrows="1" fold="1" page="1" pageScale="1" pageWidth="827" pageHeight="1169" math="0" shadow="0">
      <root>
        <mxCell id="WIyWlLk6GJQsqaUBKTNV-0" />
        <mxCell id="WIyWlLk6GJQsqaUBKTNV-1" parent="WIyWlLk6GJQsqaUBKTNV-0" />
        <mxCell id="HpkVS8bE_J5wXv6xkR4h-0" value="Sesiones de usuario (Redis)" style="rounded=1;whiteSpace=wrap;html=1;" vertex="1" parent="WIyWlLk6GJQsqaUBKTNV-1">
          <mxGeometry x="50" y="320" width="190" height="30" as="geometry" />
        </mxCell>
        <mxCell id="HpkVS8bE_J5wXv6xkR4h-1" value="usuarios (MongoDB)" style="rounded=1;whiteSpace=wrap;html=1;" vertex="1" parent="WIyWlLk6GJQsqaUBKTNV-1">
          <mxGeometry x="319" y="320" width="190" height="30" as="geometry" />
        </mxCell>
        <mxCell id="HpkVS8bE_J5wXv6xkR4h-2" value="pedidos (MongoDB)" style="rounded=1;whiteSpace=wrap;html=1;" vertex="1" parent="WIyWlLk6GJQsqaUBKTNV-1">
          <mxGeometry x="610" y="320" width="190" height="30" as="geometry" />
        </mxCell>
        <mxCell id="HpkVS8bE_J5wXv6xkR4h-3" value="productos (MongoDB)" style="rounded=1;whiteSpace=wrap;html=1;" vertex="1" parent="WIyWlLk6GJQsqaUBKTNV-1">
          <mxGeometry x="610" y="180" width="190" height="30" as="geometry" />
        </mxCell>
        <mxCell id="HpkVS8bE_J5wXv6xkR4h-4" value="cache de productos (Redis)" style="rounded=1;whiteSpace=wrap;html=1;" vertex="1" parent="WIyWlLk6GJQsqaUBKTNV-1">
          <mxGeometry x="129" y="90" width="190" height="30" as="geometry" />
        </mxCell>
        <mxCell id="HpkVS8bE_J5wXv6xkR4h-5" value="carrito de compras (Redis)" style="rounded=1;whiteSpace=wrap;html=1;" vertex="1" parent="WIyWlLk6GJQsqaUBKTNV-1">
          <mxGeometry x="450" y="90" width="190" height="30" as="geometry" />
        </mxCell>
        <mxCell id="HpkVS8bE_J5wXv6xkR4h-6" value="" style="endArrow=classic;html=1;rounded=0;exitX=1;exitY=0.5;exitDx=0;exitDy=0;entryX=0;entryY=0.5;entryDx=0;entryDy=0;" edge="1" parent="WIyWlLk6GJQsqaUBKTNV-1" source="HpkVS8bE_J5wXv6xkR4h-0" target="HpkVS8bE_J5wXv6xkR4h-1">
          <mxGeometry width="50" height="50" relative="1" as="geometry">
            <mxPoint x="390" y="190" as="sourcePoint" />
            <mxPoint x="440" y="140" as="targetPoint" />
          </mxGeometry>
        </mxCell>
        <mxCell id="HpkVS8bE_J5wXv6xkR4h-7" value="" style="endArrow=classic;html=1;rounded=0;exitX=1;exitY=0.5;exitDx=0;exitDy=0;entryX=0;entryY=0.5;entryDx=0;entryDy=0;" edge="1" parent="WIyWlLk6GJQsqaUBKTNV-1" target="HpkVS8bE_J5wXv6xkR4h-2">
          <mxGeometry width="50" height="50" relative="1" as="geometry">
            <mxPoint x="509" y="334.5" as="sourcePoint" />
            <mxPoint x="588" y="334.5" as="targetPoint" />
          </mxGeometry>
        </mxCell>
        <mxCell id="HpkVS8bE_J5wXv6xkR4h-8" value="" style="endArrow=classic;html=1;rounded=0;exitX=0.5;exitY=0;exitDx=0;exitDy=0;entryX=0.5;entryY=1;entryDx=0;entryDy=0;" edge="1" parent="WIyWlLk6GJQsqaUBKTNV-1" source="HpkVS8bE_J5wXv6xkR4h-2" target="HpkVS8bE_J5wXv6xkR4h-3">
          <mxGeometry width="50" height="50" relative="1" as="geometry">
            <mxPoint x="260" y="355" as="sourcePoint" />
            <mxPoint x="339" y="355" as="targetPoint" />
          </mxGeometry>
        </mxCell>
        <mxCell id="HpkVS8bE_J5wXv6xkR4h-9" value="" style="endArrow=classic;html=1;rounded=0;exitX=0.5;exitY=1;exitDx=0;exitDy=0;entryX=0;entryY=0;entryDx=0;entryDy=0;" edge="1" parent="WIyWlLk6GJQsqaUBKTNV-1" source="HpkVS8bE_J5wXv6xkR4h-5" target="HpkVS8bE_J5wXv6xkR4h-3">
          <mxGeometry width="50" height="50" relative="1" as="geometry">
            <mxPoint x="270" y="365" as="sourcePoint" />
            <mxPoint x="349" y="365" as="targetPoint" />
          </mxGeometry>
        </mxCell>
        <mxCell id="HpkVS8bE_J5wXv6xkR4h-11" value="" style="endArrow=classic;html=1;rounded=0;exitX=1;exitY=0.5;exitDx=0;exitDy=0;entryX=0;entryY=0.5;entryDx=0;entryDy=0;" edge="1" parent="WIyWlLk6GJQsqaUBKTNV-1" source="HpkVS8bE_J5wXv6xkR4h-4" target="HpkVS8bE_J5wXv6xkR4h-5">
          <mxGeometry width="50" height="50" relative="1" as="geometry">
            <mxPoint x="390" y="190" as="sourcePoint" />
            <mxPoint x="440" y="140" as="targetPoint" />
          </mxGeometry>
        </mxCell>
        <mxCell id="HpkVS8bE_J5wXv6xkR4h-12" value="&lt;span style=&quot;color: rgb(240, 240, 240); font-family: Helvetica; font-size: 12px; font-style: normal; font-variant-ligatures: normal; font-variant-caps: normal; font-weight: 400; letter-spacing: normal; orphans: 2; text-align: center; text-indent: 0px; text-transform: none; widows: 2; word-spacing: 0px; -webkit-text-stroke-width: 0px; background-color: rgb(27, 29, 30); text-decoration-thickness: initial; text-decoration-style: initial; text-decoration-color: initial; float: none; display: inline !important;&quot;&gt;Modelado Logico&lt;/span&gt;" style="text;whiteSpace=wrap;html=1;" vertex="1" parent="WIyWlLk6GJQsqaUBKTNV-1">
          <mxGeometry x="330" y="20" width="110" height="40" as="geometry" />
        </mxCell>
      </root>
    </mxGraphModel>
  </diagram>
</mxfile>
